<mxfile host="app.diagrams.net" modified="2023-07-29T20:18:15.090Z" agent="Mozilla/5.0 (Macintosh; Intel Mac OS X 10_15_7) AppleWebKit/537.36 (KHTML, like Gecko) Chrome/114.0.0.0 Safari/537.36" etag="Xx-L2BZ9XJ6O1euLs5dt" version="21.6.6" type="github">
  <diagram name="Page-1" id="P3ytW3Naqc1ad21FOKcg">
    <mxGraphModel dx="954" dy="622" grid="1" gridSize="10" guides="1" tooltips="1" connect="1" arrows="1" fold="1" page="1" pageScale="1" pageWidth="827" pageHeight="1169" math="0" shadow="0">
      <root>
        <mxCell id="0" />
        <mxCell id="1" parent="0" />
        <mxCell id="hcQExhRMnYj5jCerApc8-1" value="" style="rounded=0;whiteSpace=wrap;html=1;" vertex="1" parent="1">
          <mxGeometry x="350" y="290" width="120" height="60" as="geometry" />
        </mxCell>
        <mxCell id="hcQExhRMnYj5jCerApc8-2" value="" style="curved=1;endArrow=classic;html=1;rounded=0;entryX=0;entryY=0.5;entryDx=0;entryDy=0;" edge="1" parent="1" target="hcQExhRMnYj5jCerApc8-3">
          <mxGeometry width="50" height="50" relative="1" as="geometry">
            <mxPoint x="389" y="290" as="sourcePoint" />
            <mxPoint x="439" y="240" as="targetPoint" />
            <Array as="points">
              <mxPoint x="439" y="290" />
              <mxPoint x="310" y="270" />
              <mxPoint x="389" y="240" />
            </Array>
          </mxGeometry>
        </mxCell>
        <mxCell id="hcQExhRMnYj5jCerApc8-3" value="" style="rhombus;whiteSpace=wrap;html=1;" vertex="1" parent="1">
          <mxGeometry x="400" y="160" width="80" height="80" as="geometry" />
        </mxCell>
      </root>
    </mxGraphModel>
  </diagram>
</mxfile>
